<svg width="505" height="117" viewBox="0 0 505 117" fill="none" xmlns="http://www.w3.org/2000/svg">
<path d="M162.871 86.5464C158.864 86.5464 155.273 85.8959 152.098 84.5949C148.924 83.2938 146.374 81.3682 144.448 78.8181C142.575 76.2681 141.586 73.1976 141.482 69.6066H155.689C155.898 71.6363 156.6 73.1976 157.797 74.2905C158.994 75.3313 160.555 75.8517 162.481 75.8517C164.459 75.8517 166.02 75.4094 167.165 74.5246C168.31 73.5879 168.882 72.3128 168.882 70.6995C168.882 69.3464 168.414 68.2275 167.477 67.3428C166.592 66.4581 165.473 65.7295 164.12 65.157C162.819 64.5845 160.946 63.934 158.5 63.2054C154.961 62.1125 152.072 61.0196 149.835 59.9267C147.597 58.8339 145.671 57.2205 144.058 55.0868C142.445 52.9531 141.638 50.1688 141.638 46.734C141.638 41.6338 143.485 37.6526 147.18 34.7903C150.875 31.8759 155.689 30.4187 161.622 30.4187C167.659 30.4187 172.525 31.8759 176.22 34.7903C179.915 37.6526 181.893 41.6599 182.153 46.8121H167.711C167.607 45.0426 166.957 43.6635 165.76 42.6747C164.563 41.6338 163.027 41.1134 161.154 41.1134C159.541 41.1134 158.239 41.5558 157.251 42.4405C156.262 43.2732 155.767 44.4962 155.767 46.1095C155.767 47.8789 156.6 49.258 158.265 50.2469C159.931 51.2357 162.533 52.3025 166.072 53.4475C169.611 54.6444 172.473 55.7894 174.659 56.8823C176.897 57.9752 178.822 59.5624 180.436 61.6441C182.049 63.7258 182.856 66.406 182.856 69.6847C182.856 72.8072 182.049 75.6436 180.436 78.1936C178.874 80.7437 176.584 82.7734 173.566 84.2826C170.547 85.7918 166.983 86.5464 162.871 86.5464ZM232.132 63.5177C232.132 64.7667 232.054 66.0678 231.898 67.4209H201.687C201.895 70.1271 202.754 72.2088 204.263 73.6659C205.825 75.0711 207.724 75.7737 209.962 75.7737C213.293 75.7737 215.609 74.3685 216.91 71.5582H231.117C230.389 74.4206 229.061 76.9967 227.136 79.2865C225.262 81.5764 222.894 83.3719 220.032 84.6729C217.17 85.974 213.969 86.6245 210.43 86.6245C206.163 86.6245 202.364 85.7138 199.033 83.8923C195.702 82.0708 193.1 79.4687 191.227 76.0859C189.353 72.7032 188.416 68.7479 188.416 64.2202C188.416 59.6926 189.327 55.7373 191.149 52.3546C193.022 48.9718 195.624 46.3697 198.955 44.5482C202.286 42.7267 206.111 41.816 210.43 41.816C214.646 41.816 218.393 42.7007 221.671 44.4701C224.95 46.2396 227.5 48.7636 229.322 52.0423C231.195 55.321 232.132 59.1461 232.132 63.5177ZM218.471 60.0048C218.471 57.7149 217.69 55.8935 216.129 54.5404C214.568 53.1873 212.616 52.5107 210.274 52.5107C208.036 52.5107 206.137 53.1612 204.576 54.4623C203.066 55.7634 202.13 57.6109 201.765 60.0048H218.471ZM265.716 41.9721C270.816 41.9721 274.875 43.6375 277.894 46.9682C280.964 50.2469 282.499 54.7745 282.499 60.5513V86H269.229V62.3467C269.229 59.4323 268.474 57.1685 266.965 55.5552C265.456 53.9419 263.426 53.1352 260.876 53.1352C258.326 53.1352 256.296 53.9419 254.787 55.5552C253.278 57.1685 252.523 59.4323 252.523 62.3467V86H239.174V42.4405H252.523V48.2172C253.876 46.2916 255.698 44.7824 257.987 43.6895C260.277 42.5446 262.853 41.9721 265.716 41.9721ZM289.121 64.1422C289.121 59.6665 289.954 55.7373 291.62 52.3546C293.337 48.9718 295.653 46.3697 298.567 44.5482C301.482 42.7267 304.734 41.816 308.325 41.816C311.187 41.816 313.79 42.4145 316.131 43.6114C318.525 44.8084 320.399 46.4217 321.752 48.4514V28.2329H335.101V86H321.752V79.7549C320.503 81.8366 318.708 83.502 316.366 84.751C314.076 86 311.396 86.6245 308.325 86.6245C304.734 86.6245 301.482 85.7138 298.567 83.8923C295.653 82.0188 293.337 79.3906 291.62 76.0079C289.954 72.5731 289.121 68.6178 289.121 64.1422ZM321.752 64.2202C321.752 60.8895 320.815 58.2614 318.942 56.3358C317.12 54.4102 314.882 53.4475 312.228 53.4475C309.574 53.4475 307.31 54.4102 305.437 56.3358C303.615 58.2093 302.705 60.8115 302.705 64.1422C302.705 67.4729 303.615 70.1271 305.437 72.1047C307.31 74.0302 309.574 74.993 312.228 74.993C314.882 74.993 317.12 74.0302 318.942 72.1047C320.815 70.1791 321.752 67.551 321.752 64.2202Z" fill="#262261"/>
<path d="M351.548 51.1056C352.953 48.6596 355.035 46.6299 357.793 45.0166C360.604 43.3512 363.856 42.5186 367.551 42.5186C371.35 42.5186 374.785 43.4293 377.856 45.2508C380.978 47.0723 383.424 49.6484 385.194 52.9791C386.963 56.2578 387.848 60.0829 387.848 64.4544C387.848 68.774 386.963 72.6251 385.194 76.0079C383.424 79.3906 380.978 82.0188 377.856 83.8923C374.785 85.7658 371.35 86.7026 367.551 86.7026C363.908 86.7026 360.682 85.8959 357.871 84.2826C355.113 82.6172 353.005 80.5616 351.548 78.1156V106.297H344.444V43.2211H351.548V51.1056ZM380.588 64.4544C380.588 61.2278 379.937 58.4175 378.636 56.0236C377.335 53.6296 375.566 51.8081 373.328 50.5591C371.142 49.3101 368.722 48.6856 366.068 48.6856C363.466 48.6856 361.046 49.3361 358.808 50.6372C356.622 51.8862 354.853 53.7337 353.5 56.1797C352.199 58.5736 351.548 61.3579 351.548 64.5325C351.548 67.7591 352.199 70.5954 353.5 73.0414C354.853 75.4354 356.622 77.2829 358.808 78.584C361.046 79.833 363.466 80.4575 366.068 80.4575C368.722 80.4575 371.142 79.833 373.328 78.584C375.566 77.2829 377.335 75.4354 378.636 73.0414C379.937 70.5954 380.588 67.7331 380.588 64.4544ZM394.544 64.4544C394.544 60.0829 395.429 56.2578 397.198 52.9791C398.968 49.6484 401.388 47.0723 404.458 45.2508C407.581 43.4293 411.042 42.5186 414.841 42.5186C418.588 42.5186 421.841 43.3252 424.599 44.9385C427.357 46.5518 429.413 48.5815 430.766 51.0275V43.2211H437.948V86H430.766V78.0375C429.361 80.5355 427.253 82.6172 424.443 84.2826C421.684 85.8959 418.458 86.7026 414.763 86.7026C410.964 86.7026 407.529 85.7658 404.458 83.8923C401.388 82.0188 398.968 79.3906 397.198 76.0079C395.429 72.6251 394.544 68.774 394.544 64.4544ZM430.766 64.5325C430.766 61.3059 430.115 58.4956 428.814 56.1016C427.513 53.7077 425.744 51.8862 423.506 50.6372C421.32 49.3361 418.9 48.6856 416.246 48.6856C413.592 48.6856 411.172 49.3101 408.986 50.5591C406.8 51.8081 405.057 53.6296 403.756 56.0236C402.455 58.4175 401.804 61.2278 401.804 64.4544C401.804 67.7331 402.455 70.5954 403.756 73.0414C405.057 75.4354 406.8 77.2829 408.986 78.584C411.172 79.833 413.592 80.4575 416.246 80.4575C418.9 80.4575 421.32 79.833 423.506 78.584C425.744 77.2829 427.513 75.4354 428.814 73.0414C430.115 70.5954 430.766 67.7591 430.766 64.5325ZM457.056 28.2329V86H449.952V28.2329H457.056ZM484.308 86.7026C481.029 86.7026 478.089 86.1561 475.486 85.0632C472.884 83.9183 470.829 82.357 469.319 80.3794C467.81 78.3498 466.978 76.0339 466.821 73.4318H474.159C474.368 75.5655 475.356 77.3089 477.126 78.662C478.947 80.0151 481.315 80.6917 484.23 80.6917C486.936 80.6917 489.07 80.0932 490.631 78.8962C492.192 77.6992 492.973 76.19 492.973 74.3685C492.973 72.495 492.14 71.1159 490.475 70.2311C488.809 69.2944 486.233 68.3836 482.746 67.4989C479.572 66.6662 476.97 65.8336 474.94 65.0009C472.962 64.1162 471.245 62.8411 469.788 61.1758C468.383 59.4584 467.68 57.2205 467.68 54.4623C467.68 52.2765 468.331 50.2729 469.632 48.4514C470.933 46.6299 472.78 45.1987 475.174 44.1579C477.568 43.065 480.3 42.5186 483.371 42.5186C488.107 42.5186 491.932 43.7155 494.846 46.1095C497.761 48.5034 499.322 51.7821 499.53 55.9455H492.426C492.27 53.7077 491.359 51.9122 489.694 50.5591C488.081 49.206 485.895 48.5295 483.137 48.5295C480.587 48.5295 478.557 49.0759 477.048 50.1688C475.539 51.2617 474.784 52.6928 474.784 54.4623C474.784 55.8674 475.226 57.0384 476.111 57.9752C477.048 58.8599 478.193 59.5885 479.546 60.1609C480.951 60.6814 482.877 61.2798 485.323 61.9564C488.393 62.7891 490.891 63.6218 492.817 64.4544C494.742 65.2351 496.382 66.432 497.735 68.0454C499.14 69.6587 499.868 71.7664 499.92 74.3685C499.92 76.7104 499.27 78.8181 497.969 80.6917C496.668 82.5652 494.82 84.0484 492.426 85.1413C490.084 86.1821 487.378 86.7026 484.308 86.7026Z" fill="#262261"/>
<path d="M29.5197 92.0617C20.4489 92.0617 11.5361 91.6433 2.99219 90.8155C4.37462 86.7296 5.51093 82.4804 6.38067 78.1317C13.8845 78.7821 21.6604 79.1124 29.5197 79.1124C48.7911 79.1124 67.2966 77.1277 81.6255 73.5214C96.3028 69.8291 101.602 65.8412 103.455 63.7909L104.457 62.6827L103.457 61.5769C102.729 60.7724 101.301 59.4972 98.6164 58.0076C94.4958 55.7167 88.7777 53.643 81.6255 51.842C77.2747 50.7497 72.4748 49.7919 67.3598 48.995C55.8224 47.2039 42.7372 46.2535 29.5197 46.2535C22.2945 46.2535 15.1058 46.5377 8.12998 47.0945C7.77457 42.742 7.16625 38.439 6.31774 34.2514C13.8711 33.6217 21.6664 33.3027 29.5197 33.3027C51.5173 33.3027 72.2675 35.7546 87.9484 40.2127C91.2896 41.1635 94.4017 42.2134 97.1992 43.3368C103.29 45.7871 107.965 48.6281 111.095 51.7881C114.359 55.0891 115.947 58.6524 115.947 62.6827C115.947 72.3135 106.527 79.8713 87.9484 85.1513C72.2675 89.6099 51.5173 92.0617 29.5197 92.0617Z" fill="#262261"/>
<path d="M103.454 63.7884L104.456 62.6824L103.456 61.5742C102.728 60.7698 101.3 59.4952 98.6156 58.005C98.1241 57.7323 97.5389 57.4732 97.0028 57.2065C93.4988 57.3425 89.968 57.41 86.427 57.41C73.1921 57.41 60.1052 56.4593 48.5869 54.6681C43.437 53.8653 38.6371 52.909 34.3211 51.8205C27.1667 50.0195 21.4509 47.9464 17.3302 45.6561C14.6421 44.1621 13.2118 42.8912 12.4879 42.0884L11.4896 40.9824L12.4901 39.8766C14.3428 37.8241 19.6422 33.8363 34.3211 30.144C48.6386 26.5398 67.1442 24.5543 86.427 24.5543C95.3399 24.5543 104.089 24.975 112.457 25.8061C113.851 21.4612 115.525 17.2797 117.455 13.3316C107.59 12.1853 97.1643 11.6035 86.427 11.6035C64.4234 11.6035 43.6732 14.0576 27.9961 18.5119C9.41978 23.794 0 31.3533 0 40.9824C0 45.0127 1.58761 48.5739 4.85375 51.8744C7.97567 55.0327 12.6512 57.8743 18.7491 60.3262C21.5374 61.448 24.6478 62.5001 27.9961 63.4526C43.6716 67.9068 64.4234 70.3603 86.427 70.3603C88.3798 70.3603 90.3114 70.2897 92.2545 70.251C99.0975 67.6554 102.147 65.2378 103.454 63.7884Z" fill="#FFD03B"/>
<path d="M97.6055 67.2447C97.667 67.212 97.7362 67.1772 97.7977 67.1445C97.7378 67.1772 97.667 67.212 97.6055 67.2447Z" fill="#FFD03B"/>
<path d="M91.7869 69.873C91.714 69.9019 91.6337 69.9308 91.5586 69.9575C91.5646 69.9575 91.5706 69.9575 91.576 69.9575C91.6528 69.9286 91.7124 69.9019 91.7869 69.873Z" fill="#FFD03B"/>
<path d="M57.2148 48.2689C57.2187 48.3054 57.2241 48.3402 57.2263 48.3767C58.5086 48.2728 58.1249 48.252 57.2148 48.2689Z" fill="#FFD03B"/>
</svg>
